# Blender 4.0.1
# www.blender.org
mtllib nave_jugador.mtl
o Cube
v 0.840707 2.806858 0.307475
v 0.840707 2.806858 -0.307475
v 0.752536 -0.944789 1.156534
v 1.542637 -1.298801 -0.375668
v 1.542637 1.298801 -0.375668
v 0.752536 0.944789 1.156534
v 1.542637 -1.298801 0.375668
v 1.542637 1.298801 0.375668
v 0.991519 -1.244825 0.841002
v 0.991519 1.244825 0.841002
v 0.000000 1.617003 -0.841002
v 0.000000 -1.617003 0.841002
v 0.000000 -1.617003 -0.841002
v 0.000000 1.617003 0.841002
v 0.000000 2.806858 -0.307475
v 0.000000 2.806858 0.307475
v 0.000000 -1.244825 0.841002
v 0.000000 1.244825 0.841002
v 0.000000 -0.944789 1.156534
v 0.000000 0.944789 1.156534
v 1.088378 1.617003 0.841002
v 1.287963 1.617003 -0.841002
v 0.915685 -1.617003 0.374203
v 0.915685 -1.617003 -0.374203
v 3.800359 0.508641 0.130378
v 3.800359 0.508641 -0.130378
v 3.800359 -1.284180 0.130378
v 3.800359 -1.284180 -0.130378
v 4.257934 0.508641 0.181442
v 4.257934 0.508641 -0.181442
v 4.257934 -1.284180 0.181442
v 4.257934 -1.284180 -0.181442
v 4.029147 0.727705 0.293912
v 4.029147 0.727705 -0.293912
v 4.029147 -1.503244 -0.293912
v 4.029147 -1.503244 0.293912
v 1.088378 -1.617003 0.841002
v 1.287963 -1.617003 -0.841002
v 0.372278 -1.916381 0.374203
v 0.372278 -1.617003 -0.374203
v 0.372278 -1.617003 0.374203
v 0.372278 -1.916381 -0.374203
v 0.915685 -1.916381 0.374203
v 0.915685 -1.916381 -0.374203
v 0.288521 -2.074028 0.489558
v 0.288521 -2.074028 -0.489558
v 0.999443 -2.074028 0.489558
v 0.999443 -2.074028 -0.489558
v 0.220278 -2.571681 0.583545
v 0.220278 -2.571681 -0.583545
v 1.067685 -2.571681 0.583545
v 1.067685 -2.571681 -0.583545
v -0.840707 2.806858 0.307475
v -0.840707 2.806858 -0.307475
v -0.752536 -0.944789 1.156534
v -1.542637 -1.298801 -0.375668
v -1.542637 1.298801 -0.375668
v -0.752536 0.944789 1.156534
v -1.542637 -1.298801 0.375668
v -1.542637 1.298801 0.375668
v -0.991519 -1.244825 0.841002
v -0.991519 1.244825 0.841002
v -1.088378 1.617003 0.841002
v -1.287963 1.617003 -0.841002
v -0.915685 -1.617003 0.374203
v -0.915685 -1.617003 -0.374203
v -3.800359 0.508641 0.130378
v -3.800359 0.508641 -0.130378
v -3.800359 -1.284180 0.130378
v -3.800359 -1.284180 -0.130378
v -4.257934 0.508641 0.181442
v -4.257934 0.508641 -0.181442
v -4.257934 -1.284180 0.181442
v -4.257934 -1.284180 -0.181442
v -4.029147 0.727705 0.293912
v -4.029147 0.727705 -0.293912
v -4.029147 -1.503244 -0.293912
v -4.029147 -1.503244 0.293912
v -1.088378 -1.617003 0.841002
v -1.287963 -1.617003 -0.841002
v -0.372278 -1.916381 0.374203
v -0.372278 -1.617003 -0.374203
v -0.372278 -1.617003 0.374203
v -0.372278 -1.916381 -0.374203
v -0.915685 -1.916381 0.374203
v -0.915685 -1.916381 -0.374203
v -0.288521 -2.074028 0.489558
v -0.288521 -2.074028 -0.489558
v -0.999443 -2.074028 0.489558
v -0.999443 -2.074028 -0.489558
v -0.220278 -2.571681 0.583545
v -0.220278 -2.571681 -0.583545
v -1.067685 -2.571681 0.583545
v -1.067685 -2.571681 -0.583545
vn -0.0000 -0.0000 -1.0000
vn 0.1080 -0.0000 0.9941
vn -0.0000 1.0000 -0.0000
vn -0.0000 0.4091 -0.9125
vn 0.9457 0.3052 0.1122
vn -0.0000 -0.0000 1.0000
vn 0.7972 -0.0000 0.6038
vn -0.0000 0.7247 0.6891
vn -0.0000 -0.7247 0.6891
vn -0.0000 0.4091 0.9125
vn -1.0000 -0.0000 -0.0000
vn 0.5737 0.8190 -0.0000
vn 0.7138 -0.6952 0.0847
vn 0.7156 -0.0000 0.6985
vn 0.8772 -0.0000 -0.4801
vn 0.6916 0.7223 -0.0000
vn 0.3303 0.9439 -0.0000
vn 0.1080 -0.0000 -0.9941
vn 0.0065 -1.0000 -0.0000
vn 1.0000 -0.0000 -0.0000
vn 0.4412 -0.0000 -0.8974
vn 0.6916 -0.7223 -0.0000
vn 0.4412 -0.0000 0.8974
vn -0.5815 -0.0000 0.8135
vn -0.6916 -0.7223 -0.0000
vn -0.5815 -0.0000 -0.8135
vn -0.6916 0.7223 -0.0000
vn -0.0000 -1.0000 -0.0000
vn -0.0000 0.5905 -0.8070
vn -0.0000 0.1856 0.9826
vn -0.8831 0.4692 -0.0000
vn -0.0000 0.5905 0.8070
vn 0.8831 0.4692 -0.0000
vn 0.9907 0.1359 -0.0000
vn -0.0000 0.1856 -0.9826
vn -0.9907 0.1359 -0.0000
vn -0.1080 -0.0000 0.9941
vn -0.9790 0.2038 -0.0000
vn -0.7972 -0.0000 0.6038
vn -0.5737 0.8190 -0.0000
vn -0.5737 -0.8190 -0.0000
vn -0.7156 -0.0000 0.6985
vn -0.8772 -0.0000 -0.4801
vn -0.3303 0.9439 -0.0000
vn -0.1080 -0.0000 -0.9941
vn -0.0065 -1.0000 -0.0000
vn -0.4412 -0.0000 -0.8974
vn -0.4412 -0.0000 0.8974
vn 0.5815 -0.0000 0.8135
vn 0.5815 -0.0000 -0.8135
vn 0.9790 0.2038 -0.0000
vn 0.7138 0.6952 0.0847
vn 0.5737 -0.8190 -0.0000
vn -0.9457 0.3052 0.1122
vn -0.7138 0.6952 0.0847
vn -0.7138 -0.6952 0.0847
vt 0.361468 0.316441
vt 0.199983 0.639413
vt 0.199983 0.316441
vt 0.322939 0.958103
vt 0.322939 0.698688
vt 0.585771 0.252355
vt 0.796587 0.146947
vt 0.796587 0.252355
vt 0.852665 0.252355
vt 0.529693 0.090870
vt 0.852665 0.090870
vt 0.721608 0.602244
vt 0.684440 0.316441
vt 0.721608 0.353610
vt 0.845926 0.316441
vt 0.845926 0.353610
vt 0.136750 0.255857
vt 0.106787 0.037186
vt 0.136750 0.067150
vt 0.231104 0.037186
vt 0.231104 0.067150
vt 0.231104 0.285821
vt 0.106787 0.285821
vt 0.845926 0.639413
vt 0.684440 0.639413
vt 0.585771 0.146947
vt 0.529693 0.252355
vt 0.831405 0.574528
vt 0.831405 0.394523
vt 0.422568 0.348219
vt 0.623340 0.348219
vt 0.422568 0.607635
vt 0.361468 0.639413
vt 0.623340 0.607635
vt 0.941766 0.688674
vt 0.740994 0.688674
vt 0.122167 0.698688
vt 0.122167 0.958103
vt 0.740994 0.948090
vt 0.941766 0.948090
vt 0.612957 0.686089
vt 0.432952 0.754222
vt 0.432952 0.686089
vt 0.612957 0.754222
vt 0.684440 0.800899
vt 0.361468 0.800899
vt 0.763272 0.394523
vt 0.763273 0.574528
vt 0.458751 0.055532
vt 0.278746 0.283307
vt 0.278746 0.055532
vt 0.231104 0.255857
vt 0.845926 0.602244
vt 0.458751 0.283307
s 0
usemtl Material
f 22/1/1 13/2/1 11/3/1
f 7/4/2 25/5/2 8/5/2
f 16/6/3 2/7/3 15/8/3
f 2/7/4 11/9/4 15/8/4
f 2/7/5 21/10/5 22/11/5
f 9/12/6 21/13/6 10/14/6
f 10/14/6 14/15/6 18/16/6
f 3/17/7 10/18/7 6/19/7
f 6/19/8 18/20/8 20/21/8
f 3/17/9 17/22/9 9/23/9
f 9/12/6 12/24/6 37/25/6
f 1/26/10 14/27/10 21/10/10
f 40/28/11 39/29/11 41/29/11
f 20/21/6 3/17/6 6/19/6
f 5/30/12 21/13/12 8/31/12
f 4/32/13 37/25/13 38/33/13
f 8/31/14 37/25/14 7/34/14
f 4/32/15 22/1/15 5/30/15
f 33/35/16 30/36/16 34/36/16
f 8/5/17 26/37/17 5/37/17
f 4/38/18 26/37/18 28/38/18
f 4/38/19 27/4/19 7/4/19
f 29/35/20 32/39/20 30/36/20
f 34/36/21 32/39/21 35/39/21
f 35/39/22 31/40/22 36/40/22
f 36/40/23 29/35/23 33/35/23
f 27/40/24 33/35/24 25/35/24
f 28/39/25 36/40/25 27/40/25
f 26/36/26 35/39/26 28/39/26
f 25/35/27 34/36/27 26/36/27
f 23/41/28 38/33/28 37/25/28
f 40/42/28 38/33/28 24/43/28
f 41/44/28 37/25/28 12/45/28
f 41/44/28 13/46/28 40/42/28
f 44/43/29 46/42/29 42/42/29
f 41/29/6 43/47/6 23/47/6
f 23/47/20 44/48/20 24/48/20
f 24/48/1 42/28/1 40/28/1
f 45/44/30 51/41/30 47/41/30
f 42/42/31 45/44/31 39/44/31
f 39/44/32 47/41/32 43/41/32
f 43/41/33 48/43/33 44/43/33
f 51/49/28 50/50/28 52/51/28
f 47/41/34 52/43/34 48/43/34
f 48/43/35 50/42/35 46/42/35
f 46/42/36 49/44/36 45/44/36
f 13/2/1 64/1/1 11/3/1
f 67/5/37 59/4/37 60/5/37
f 54/7/3 16/6/3 15/8/3
f 11/9/4 54/7/4 15/8/4
f 54/7/38 63/10/38 53/26/38
f 63/13/6 61/12/6 62/14/6
f 14/15/6 62/14/6 18/16/6
f 62/18/39 55/17/39 58/19/39
f 18/20/8 58/19/8 20/21/8
f 55/17/9 17/22/9 19/52/9
f 61/12/6 12/24/6 17/53/6
f 53/26/10 14/27/10 16/6/10
f 81/29/20 82/28/20 83/29/20
f 55/17/6 20/21/6 58/19/6
f 63/13/40 57/30/40 60/31/40
f 56/32/41 79/25/41 59/34/41
f 79/25/42 60/31/42 59/34/42
f 64/1/43 56/32/43 57/30/43
f 72/36/27 75/35/27 76/36/27
f 68/37/44 60/5/44 57/37/44
f 56/38/45 68/37/45 57/37/45
f 69/4/46 56/38/46 59/4/46
f 74/39/11 71/35/11 72/36/11
f 74/39/47 76/36/47 77/39/47
f 78/40/25 74/39/25 77/39/25
f 71/35/48 78/40/48 75/35/48
f 75/35/49 69/40/49 67/35/49
f 78/40/22 70/39/22 69/40/22
f 77/39/50 68/36/50 70/39/50
f 68/36/16 75/35/16 67/35/16
f 65/41/28 80/33/28 66/43/28
f 80/33/28 82/42/28 66/43/28
f 83/44/28 79/25/28 65/41/28
f 13/46/28 83/44/28 82/42/28
f 88/42/29 86/43/29 84/42/29
f 85/47/6 83/29/6 65/47/6
f 86/48/11 65/47/11 66/48/11
f 84/28/1 66/48/1 82/28/1
f 93/41/30 87/44/30 89/41/30
f 81/44/33 88/42/33 84/42/33
f 89/41/32 81/44/32 85/41/32
f 90/43/31 85/41/31 86/43/31
f 92/50/28 93/49/28 94/51/28
f 94/43/36 89/41/36 90/43/36
f 92/42/35 90/43/35 88/42/35
f 91/44/34 88/42/34 87/44/34
f 22/1/1 38/33/1 13/2/1
f 7/4/2 27/4/2 25/5/2
f 16/6/3 1/26/3 2/7/3
f 2/7/4 22/11/4 11/9/4
f 2/7/51 1/26/51 21/10/51
f 9/12/6 37/25/6 21/13/6
f 10/14/6 21/13/6 14/15/6
f 3/17/7 9/23/7 10/18/7
f 6/19/8 10/18/8 18/20/8
f 3/17/9 19/52/9 17/22/9
f 9/12/6 17/53/6 12/24/6
f 1/26/10 16/6/10 14/27/10
f 40/28/11 42/28/11 39/29/11
f 20/21/6 19/52/6 3/17/6
f 5/30/52 22/1/52 21/13/52
f 4/32/53 7/34/53 37/25/53
f 8/31/14 21/13/14 37/25/14
f 4/32/15 38/33/15 22/1/15
f 33/35/16 29/35/16 30/36/16
f 8/5/17 25/5/17 26/37/17
f 4/38/18 5/37/18 26/37/18
f 4/38/19 28/38/19 27/4/19
f 29/35/20 31/40/20 32/39/20
f 34/36/21 30/36/21 32/39/21
f 35/39/22 32/39/22 31/40/22
f 36/40/23 31/40/23 29/35/23
f 27/40/24 36/40/24 33/35/24
f 28/39/25 35/39/25 36/40/25
f 26/36/26 34/36/26 35/39/26
f 25/35/27 33/35/27 34/36/27
f 23/41/28 24/43/28 38/33/28
f 40/42/28 13/46/28 38/33/28
f 41/44/28 23/41/28 37/25/28
f 41/44/28 12/45/28 13/46/28
f 44/43/29 48/43/29 46/42/29
f 41/29/6 39/29/6 43/47/6
f 23/47/20 43/47/20 44/48/20
f 24/48/1 44/48/1 42/28/1
f 45/44/30 49/44/30 51/41/30
f 42/42/31 46/42/31 45/44/31
f 39/44/32 45/44/32 47/41/32
f 43/41/33 47/41/33 48/43/33
f 51/49/28 49/54/28 50/50/28
f 47/41/34 51/41/34 52/43/34
f 48/43/35 52/43/35 50/42/35
f 46/42/36 50/42/36 49/44/36
f 13/2/1 80/33/1 64/1/1
f 67/5/37 69/4/37 59/4/37
f 54/7/3 53/26/3 16/6/3
f 11/9/4 64/11/4 54/7/4
f 54/7/54 64/11/54 63/10/54
f 63/13/6 79/25/6 61/12/6
f 14/15/6 63/13/6 62/14/6
f 62/18/39 61/23/39 55/17/39
f 18/20/8 62/18/8 58/19/8
f 55/17/9 61/23/9 17/22/9
f 61/12/6 79/25/6 12/24/6
f 53/26/10 63/10/10 14/27/10
f 81/29/20 84/28/20 82/28/20
f 55/17/6 19/52/6 20/21/6
f 63/13/55 64/1/55 57/30/55
f 56/32/56 80/33/56 79/25/56
f 79/25/42 63/13/42 60/31/42
f 64/1/43 80/33/43 56/32/43
f 72/36/27 71/35/27 75/35/27
f 68/37/44 67/5/44 60/5/44
f 56/38/45 70/38/45 68/37/45
f 69/4/46 70/38/46 56/38/46
f 74/39/11 73/40/11 71/35/11
f 74/39/47 72/36/47 76/36/47
f 78/40/25 73/40/25 74/39/25
f 71/35/48 73/40/48 78/40/48
f 75/35/49 78/40/49 69/40/49
f 78/40/22 77/39/22 70/39/22
f 77/39/50 76/36/50 68/36/50
f 68/36/16 76/36/16 75/35/16
f 65/41/28 79/25/28 80/33/28
f 80/33/28 13/46/28 82/42/28
f 83/44/28 12/45/28 79/25/28
f 13/46/28 12/45/28 83/44/28
f 88/42/29 90/43/29 86/43/29
f 85/47/6 81/29/6 83/29/6
f 86/48/11 85/47/11 65/47/11
f 84/28/1 86/48/1 66/48/1
f 93/41/30 91/44/30 87/44/30
f 81/44/33 87/44/33 88/42/33
f 89/41/32 87/44/32 81/44/32
f 90/43/31 89/41/31 85/41/31
f 92/50/28 91/54/28 93/49/28
f 94/43/36 93/41/36 89/41/36
f 92/42/35 94/43/35 90/43/35
f 91/44/34 92/42/34 88/42/34
